<mxfile host="65bd71144e">
    <diagram id="nZDIip60dWa5oba2DkQ8" name="Page-1">
        <mxGraphModel dx="720" dy="1158" grid="1" gridSize="10" guides="1" tooltips="1" connect="1" arrows="1" fold="1" page="1" pageScale="1" pageWidth="827" pageHeight="1169" math="0" shadow="0">
            <root>
                <mxCell id="0"/>
                <mxCell id="1" parent="0"/>
                <mxCell id="14" style="edgeStyle=none;html=1;entryX=0.5;entryY=0;entryDx=0;entryDy=0;fontFamily=Lucida Console;fontSize=9;" parent="1" source="2" target="5" edge="1">
                    <mxGeometry relative="1" as="geometry"/>
                </mxCell>
                <mxCell id="2" value="Sleep stage intervals&amp;nbsp;&lt;br&gt;&lt;font style=&quot;font-size: 9px&quot; face=&quot;Lucida Console&quot;&gt;(#intervals=1,855,957)&lt;br&gt;(#hours=618,082)&lt;/font&gt;" style="rounded=1;whiteSpace=wrap;html=1;" parent="1" vertex="1">
                    <mxGeometry x="240" y="80" width="180" height="60" as="geometry"/>
                </mxCell>
                <mxCell id="19" style="edgeStyle=none;html=1;fontFamily=Lucida Console;fontSize=9;" parent="1" source="5" target="17" edge="1">
                    <mxGeometry relative="1" as="geometry"/>
                </mxCell>
                <mxCell id="5" value="Sleep stage epochs&amp;nbsp;&lt;br&gt;&lt;font style=&quot;font-size: 9px&quot; face=&quot;Lucida Console&quot;&gt;(#epochs = 70,190,672)&lt;/font&gt;" style="rounded=1;whiteSpace=wrap;html=1;" parent="1" vertex="1">
                    <mxGeometry x="240" y="210" width="180" height="60" as="geometry"/>
                </mxCell>
                <mxCell id="9" value="&lt;span style=&quot;font-family: &amp;#34;helvetica&amp;#34; ; font-size: 12px&quot;&gt;Remove epochs&lt;br&gt;outside 8pm-10am&amp;nbsp;&lt;/span&gt;&lt;br style=&quot;font-family: &amp;#34;helvetica&amp;#34; ; font-size: 12px&quot;&gt;&lt;font face=&quot;Lucida Console&quot;&gt;(#epochs = 2,932,777, 4.18%)&lt;/font&gt;" style="text;html=1;strokeColor=none;fillColor=none;align=center;verticalAlign=middle;whiteSpace=wrap;rounded=0;fontFamily=Lucida Console;fontSize=9;" parent="1" vertex="1">
                    <mxGeometry x="320" y="290" width="180" height="30" as="geometry"/>
                </mxCell>
                <mxCell id="10" value="&lt;span style=&quot;font-family: &amp;#34;helvetica&amp;#34; ; font-size: 12px&quot;&gt;Remove overlapped epochs&lt;/span&gt;&lt;br style=&quot;font-family: &amp;#34;helvetica&amp;#34; ; font-size: 12px&quot;&gt;&lt;font face=&quot;Lucida Console&quot;&gt;(#epochs = 258,575, 0.38%)&lt;/font&gt;" style="text;html=1;strokeColor=none;fillColor=none;align=center;verticalAlign=middle;whiteSpace=wrap;rounded=0;fontFamily=Lucida Console;fontSize=9;" parent="1" vertex="1">
                    <mxGeometry x="320" y="350" width="180" height="30" as="geometry"/>
                </mxCell>
                <mxCell id="11" value="&lt;span style=&quot;font-family: &amp;#34;helvetica&amp;#34; ; font-size: 12px&quot;&gt;Binning&lt;/span&gt;" style="text;html=1;strokeColor=none;fillColor=none;align=center;verticalAlign=middle;whiteSpace=wrap;rounded=0;fontFamily=Lucida Console;fontSize=9;" parent="1" vertex="1">
                    <mxGeometry x="100" y="500" width="180" height="30" as="geometry"/>
                </mxCell>
                <mxCell id="44" style="edgeStyle=none;html=1;" edge="1" parent="1" source="12" target="41">
                    <mxGeometry relative="1" as="geometry"/>
                </mxCell>
                <mxCell id="12" value="Hourly-binned time series&lt;br&gt;for each stage&amp;nbsp;&lt;br&gt;&lt;font style=&quot;font-size: 9px&quot; face=&quot;Lucida Console&quot;&gt;(#hours = 735,555)&lt;/font&gt;" style="rounded=1;whiteSpace=wrap;html=1;" parent="1" vertex="1">
                    <mxGeometry x="90" y="540" width="180" height="60" as="geometry"/>
                </mxCell>
                <mxCell id="15" value="&lt;span style=&quot;font-family: &amp;#34;helvetica&amp;#34; ; font-size: 12px&quot;&gt;Remove records from subjects unmatched in PHQ/metadata&amp;nbsp;&lt;/span&gt;&lt;br style=&quot;font-family: &amp;#34;helvetica&amp;#34; ; font-size: 12px&quot;&gt;&lt;font face=&quot;Lucida Console&quot;&gt;(#intervals = 57,728, 3.11%)&lt;/font&gt;" style="text;html=1;strokeColor=none;fillColor=none;align=center;verticalAlign=middle;whiteSpace=wrap;rounded=0;fontFamily=Lucida Console;fontSize=9;" parent="1" vertex="1">
                    <mxGeometry x="330" y="160" width="180" height="30" as="geometry"/>
                </mxCell>
                <mxCell id="34" style="edgeStyle=none;html=1;entryX=0.5;entryY=0;entryDx=0;entryDy=0;fontFamily=Lucida Console;" parent="1" source="16" target="31" edge="1">
                    <mxGeometry relative="1" as="geometry"/>
                </mxCell>
                <mxCell id="16" value="Summary features&amp;nbsp;&lt;br&gt;&lt;font style=&quot;font-size: 9px&quot; face=&quot;Lucida Console&quot;&gt;(#nights = 76,114&lt;br&gt;#pids = 460)&lt;/font&gt;" style="rounded=1;whiteSpace=wrap;html=1;" parent="1" vertex="1">
                    <mxGeometry x="390" y="540" width="180" height="60" as="geometry"/>
                </mxCell>
                <mxCell id="28" style="edgeStyle=none;html=1;entryX=0.5;entryY=0;entryDx=0;entryDy=0;exitX=0.5;exitY=1;exitDx=0;exitDy=0;" parent="1" source="17" target="16" edge="1">
                    <mxGeometry relative="1" as="geometry"/>
                </mxCell>
                <mxCell id="39" style="edgeStyle=none;html=1;entryX=0.5;entryY=0;entryDx=0;entryDy=0;exitX=0.5;exitY=1;exitDx=0;exitDy=0;" edge="1" parent="1" source="17" target="12">
                    <mxGeometry relative="1" as="geometry"/>
                </mxCell>
                <mxCell id="17" value="Non-overlapped epochs&amp;nbsp;&lt;br&gt;&lt;font face=&quot;Lucida Console&quot;&gt;&lt;font size=&quot;1&quot;&gt;(#epochs = 70,830,210&lt;/font&gt;&lt;font size=&quot;1&quot;&gt;)&lt;/font&gt;&lt;/font&gt;" style="rounded=1;whiteSpace=wrap;html=1;" parent="1" vertex="1">
                    <mxGeometry x="240" y="405" width="180" height="60" as="geometry"/>
                </mxCell>
                <mxCell id="26" style="edgeStyle=none;html=1;fontFamily=Lucida Console;fontSize=9;" parent="1" source="21" target="22" edge="1">
                    <mxGeometry relative="1" as="geometry"/>
                </mxCell>
                <mxCell id="21" value="PHQ questionnaire records&lt;br&gt;before 2022.01.31&lt;br&gt;&lt;font style=&quot;font-size: 9px&quot; face=&quot;Lucida Console&quot;&gt;(#records = 5,082)&lt;/font&gt;" style="rounded=1;whiteSpace=wrap;html=1;" parent="1" vertex="1">
                    <mxGeometry x="600" y="80" width="180" height="60" as="geometry"/>
                </mxCell>
                <mxCell id="38" style="edgeStyle=none;html=1;entryX=1;entryY=0.5;entryDx=0;entryDy=0;" edge="1" parent="1" source="22" target="31">
                    <mxGeometry relative="1" as="geometry">
                        <Array as="points">
                            <mxPoint x="690" y="690"/>
                        </Array>
                    </mxGeometry>
                </mxCell>
                <mxCell id="22" value="PHQ questionnaire records&lt;br&gt;&lt;font style=&quot;font-size: 9px&quot; face=&quot;Lucida Console&quot;&gt;(#records = 4,836)&lt;/font&gt;" style="rounded=1;whiteSpace=wrap;html=1;" parent="1" vertex="1">
                    <mxGeometry x="600" y="210" width="180" height="60" as="geometry"/>
                </mxCell>
                <mxCell id="25" value="&lt;span style=&quot;font-family: &amp;#34;helvetica&amp;#34; ; font-size: 12px&quot;&gt;Drop records within 14 days orom previous record&lt;/span&gt;&lt;br style=&quot;font-family: &amp;#34;helvetica&amp;#34; ; font-size: 12px&quot;&gt;&lt;font face=&quot;Lucida Console&quot;&gt;(#records = 246, 4.83%)&lt;/font&gt;" style="text;html=1;strokeColor=none;fillColor=none;align=center;verticalAlign=middle;whiteSpace=wrap;rounded=0;fontFamily=Lucida Console;fontSize=9;" parent="1" vertex="1">
                    <mxGeometry x="680" y="160" width="180" height="30" as="geometry"/>
                </mxCell>
                <mxCell id="29" value="&lt;div&gt;&lt;span style=&quot;font-size: 12px&quot;&gt;feat_engineering.&lt;br&gt;summarise_stats_per_night&lt;/span&gt;&lt;/div&gt;" style="text;html=1;strokeColor=none;fillColor=none;align=center;verticalAlign=middle;whiteSpace=wrap;rounded=0;fontFamily=Lucida Console;fontSize=9;" parent="1" vertex="1">
                    <mxGeometry x="400" y="470" width="180" height="30" as="geometry"/>
                </mxCell>
                <mxCell id="36" style="edgeStyle=none;html=1;entryX=0.5;entryY=0;entryDx=0;entryDy=0;fontFamily=Lucida Console;" parent="1" source="31" target="33" edge="1">
                    <mxGeometry relative="1" as="geometry"/>
                </mxCell>
                <mxCell id="31" value="Summary features&amp;nbsp;&lt;br&gt;&lt;font face=&quot;Lucida Console&quot;&gt;&lt;font size=&quot;1&quot;&gt;(#nights = 40,977&lt;/font&gt;&lt;br&gt;&lt;font size=&quot;1&quot;&gt;#pids = 391&lt;/font&gt;&lt;br&gt;&lt;font size=&quot;1&quot;&gt;#ΔT&amp;nbsp;&lt;/font&gt;&lt;font size=&quot;1&quot;&gt;= 4,836)&lt;/font&gt;&lt;/font&gt;" style="rounded=1;whiteSpace=wrap;html=1;" parent="1" vertex="1">
                    <mxGeometry x="390" y="660" width="180" height="60" as="geometry"/>
                </mxCell>
                <mxCell id="33" value="Summary features&amp;nbsp;&lt;br&gt;&lt;font face=&quot;Lucida Console&quot;&gt;&lt;font size=&quot;1&quot;&gt;(#nights = 40,977&lt;/font&gt;&lt;br&gt;&lt;font size=&quot;1&quot;&gt;#pids = 391&lt;/font&gt;&lt;br&gt;&lt;font size=&quot;1&quot;&gt;#ΔT&amp;nbsp;&lt;/font&gt;&lt;font size=&quot;1&quot;&gt;= 4,836)&lt;/font&gt;&lt;/font&gt;" style="rounded=1;whiteSpace=wrap;html=1;" parent="1" vertex="1">
                    <mxGeometry x="390" y="770" width="180" height="60" as="geometry"/>
                </mxCell>
                <mxCell id="35" value="&lt;font face=&quot;helvetica&quot;&gt;&lt;span style=&quot;font-size: 12px&quot;&gt;Merge with target&lt;/span&gt;&lt;/font&gt;" style="text;html=1;strokeColor=none;fillColor=none;align=center;verticalAlign=middle;whiteSpace=wrap;rounded=0;fontFamily=Lucida Console;fontSize=9;" parent="1" vertex="1">
                    <mxGeometry x="450" y="610" width="180" height="30" as="geometry"/>
                </mxCell>
                <mxCell id="37" value="&lt;span style=&quot;font-family: &amp;#34;helvetica&amp;#34; ; font-size: 12px&quot;&gt;Filter #non-missing nights &amp;gt;= 12&amp;nbsp;&lt;br&gt;&lt;/span&gt;&lt;font face=&quot;Lucida Console&quot;&gt;(&lt;/font&gt;&lt;span style=&quot;font-size: x-small&quot;&gt;#ΔT&amp;nbsp;&lt;/span&gt;&lt;font face=&quot;Lucida Console&quot;&gt;= 258,575, 0.38%)&lt;/font&gt;" style="text;html=1;strokeColor=none;fillColor=none;align=center;verticalAlign=middle;whiteSpace=wrap;rounded=0;fontFamily=Lucida Console;fontSize=9;" parent="1" vertex="1">
                    <mxGeometry x="480" y="730" width="180" height="30" as="geometry"/>
                </mxCell>
                <mxCell id="41" value="Hourly-binned time series&lt;br&gt;for each stage" style="rounded=1;whiteSpace=wrap;html=1;" vertex="1" parent="1">
                    <mxGeometry x="90" y="660" width="180" height="60" as="geometry"/>
                </mxCell>
                <mxCell id="45" value="&lt;font face=&quot;helvetica&quot;&gt;&lt;span style=&quot;font-size: 12px&quot;&gt;Merge with target&lt;/span&gt;&lt;/font&gt;" style="text;html=1;strokeColor=none;fillColor=none;align=center;verticalAlign=middle;whiteSpace=wrap;rounded=0;fontFamily=Lucida Console;fontSize=9;" vertex="1" parent="1">
                    <mxGeometry x="150" y="610" width="180" height="30" as="geometry"/>
                </mxCell>
            </root>
        </mxGraphModel>
    </diagram>
</mxfile>